<mxfile host="app.diagrams.net" modified="2022-07-10T09:45:24.405Z" agent="5.0 (Windows NT 10.0; Win64; x64) AppleWebKit/537.36 (KHTML, like Gecko) Chrome/103.0.0.0 Safari/537.36" etag="hhul4O-_GKZWueypa6Ll" version="20.0.4" type="github">
  <diagram id="accJ7N_L74ea_RSTQcrK" name="Page-1">
    <mxGraphModel dx="1422" dy="794" grid="0" gridSize="10" guides="1" tooltips="1" connect="1" arrows="1" fold="1" page="1" pageScale="1" pageWidth="827" pageHeight="1169" math="0" shadow="0">
      <root>
        <mxCell id="0" />
        <mxCell id="1" parent="0" />
        <mxCell id="HElb8EKQKASEjrZ3UNd6-16" value="管理员" style="shape=umlActor;verticalLabelPosition=bottom;verticalAlign=top;html=1;" parent="1" vertex="1">
          <mxGeometry x="125" y="305" width="30" height="60" as="geometry" />
        </mxCell>
        <mxCell id="HElb8EKQKASEjrZ3UNd6-27" value="&lt;div&gt;查看性能指标&lt;/div&gt;" style="ellipse;whiteSpace=wrap;html=1;" parent="1" vertex="1">
          <mxGeometry x="244" y="185" width="115" height="50" as="geometry" />
        </mxCell>
        <mxCell id="HElb8EKQKASEjrZ3UNd6-45" value="" style="html=1;verticalAlign=bottom;endArrow=block;rounded=0;" parent="1" source="HElb8EKQKASEjrZ3UNd6-16" target="HElb8EKQKASEjrZ3UNd6-27" edge="1">
          <mxGeometry width="80" relative="1" as="geometry">
            <mxPoint x="75" y="575" as="sourcePoint" />
            <mxPoint x="155" y="575" as="targetPoint" />
          </mxGeometry>
        </mxCell>
        <mxCell id="HElb8EKQKASEjrZ3UNd6-46" value="" style="html=1;verticalAlign=bottom;endArrow=block;rounded=0;" parent="1" source="HElb8EKQKASEjrZ3UNd6-16" target="HElb8EKQKASEjrZ3UNd6-51" edge="1">
          <mxGeometry width="80" relative="1" as="geometry">
            <mxPoint x="75" y="575" as="sourcePoint" />
            <mxPoint x="155" y="575" as="targetPoint" />
          </mxGeometry>
        </mxCell>
        <mxCell id="HElb8EKQKASEjrZ3UNd6-47" value="" style="html=1;verticalAlign=bottom;endArrow=block;rounded=0;" parent="1" source="HElb8EKQKASEjrZ3UNd6-16" target="HElb8EKQKASEjrZ3UNd6-56" edge="1">
          <mxGeometry width="80" relative="1" as="geometry">
            <mxPoint x="75" y="575" as="sourcePoint" />
            <mxPoint x="155" y="575" as="targetPoint" />
          </mxGeometry>
        </mxCell>
        <mxCell id="HElb8EKQKASEjrZ3UNd6-48" value="" style="html=1;verticalAlign=bottom;endArrow=block;rounded=0;" parent="1" source="HElb8EKQKASEjrZ3UNd6-16" target="HElb8EKQKASEjrZ3UNd6-58" edge="1">
          <mxGeometry width="80" relative="1" as="geometry">
            <mxPoint x="75" y="575" as="sourcePoint" />
            <mxPoint x="155" y="575" as="targetPoint" />
          </mxGeometry>
        </mxCell>
        <mxCell id="HElb8EKQKASEjrZ3UNd6-49" value="" style="html=1;verticalAlign=bottom;endArrow=block;rounded=0;" parent="1" source="HElb8EKQKASEjrZ3UNd6-16" target="HElb8EKQKASEjrZ3UNd6-54" edge="1">
          <mxGeometry width="80" relative="1" as="geometry">
            <mxPoint x="75" y="575" as="sourcePoint" />
            <mxPoint x="155" y="575" as="targetPoint" />
          </mxGeometry>
        </mxCell>
        <mxCell id="HElb8EKQKASEjrZ3UNd6-50" style="edgeStyle=orthogonalEdgeStyle;rounded=0;orthogonalLoop=1;jettySize=auto;html=1;exitX=0.5;exitY=1;exitDx=0;exitDy=0;" parent="1" edge="1">
          <mxGeometry relative="1" as="geometry">
            <mxPoint x="637.5000000000002" y="380" as="sourcePoint" />
            <mxPoint x="637.5000000000002" y="380" as="targetPoint" />
          </mxGeometry>
        </mxCell>
        <mxCell id="HElb8EKQKASEjrZ3UNd6-51" value="异常处理" style="ellipse;whiteSpace=wrap;html=1;" parent="1" vertex="1">
          <mxGeometry x="147.5" y="465" width="115" height="50" as="geometry" />
        </mxCell>
        <mxCell id="HElb8EKQKASEjrZ3UNd6-54" value="故障定位" style="ellipse;whiteSpace=wrap;html=1;" parent="1" vertex="1">
          <mxGeometry x="312.5" y="305" width="115" height="50" as="geometry" />
        </mxCell>
        <mxCell id="HElb8EKQKASEjrZ3UNd6-56" value="工单查看" style="ellipse;whiteSpace=wrap;html=1;" parent="1" vertex="1">
          <mxGeometry x="295" y="365" width="115" height="50" as="geometry" />
        </mxCell>
        <mxCell id="HElb8EKQKASEjrZ3UNd6-58" value="查看链路详情" style="ellipse;whiteSpace=wrap;html=1;" parent="1" vertex="1">
          <mxGeometry x="244" y="430" width="115" height="50" as="geometry" />
        </mxCell>
        <mxCell id="HElb8EKQKASEjrZ3UNd6-62" value="开发人员" style="shape=umlActor;verticalLabelPosition=bottom;verticalAlign=top;html=1;" parent="1" vertex="1">
          <mxGeometry x="101" y="748" width="30" height="60" as="geometry" />
        </mxCell>
        <mxCell id="HElb8EKQKASEjrZ3UNd6-65" value="" style="html=1;verticalAlign=bottom;endArrow=block;rounded=0;" parent="1" source="HElb8EKQKASEjrZ3UNd6-62" target="HElb8EKQKASEjrZ3UNd6-69" edge="1">
          <mxGeometry width="80" relative="1" as="geometry">
            <mxPoint x="51" y="1018" as="sourcePoint" />
            <mxPoint x="131" y="1018" as="targetPoint" />
          </mxGeometry>
        </mxCell>
        <mxCell id="HElb8EKQKASEjrZ3UNd6-66" value="" style="html=1;verticalAlign=bottom;endArrow=block;rounded=0;" parent="1" source="HElb8EKQKASEjrZ3UNd6-62" target="HElb8EKQKASEjrZ3UNd6-71" edge="1">
          <mxGeometry width="80" relative="1" as="geometry">
            <mxPoint x="51" y="1018" as="sourcePoint" />
            <mxPoint x="131" y="1018" as="targetPoint" />
          </mxGeometry>
        </mxCell>
        <mxCell id="HElb8EKQKASEjrZ3UNd6-68" value="" style="html=1;verticalAlign=bottom;endArrow=block;rounded=0;" parent="1" source="HElb8EKQKASEjrZ3UNd6-62" target="HElb8EKQKASEjrZ3UNd6-70" edge="1">
          <mxGeometry width="80" relative="1" as="geometry">
            <mxPoint x="51" y="1018" as="sourcePoint" />
            <mxPoint x="131" y="1018" as="targetPoint" />
          </mxGeometry>
        </mxCell>
        <mxCell id="HElb8EKQKASEjrZ3UNd6-69" value="告警配置" style="ellipse;whiteSpace=wrap;html=1;" parent="1" vertex="1">
          <mxGeometry x="186" y="645" width="115" height="50" as="geometry" />
        </mxCell>
        <mxCell id="HElb8EKQKASEjrZ3UNd6-70" value="接受告警工单" style="ellipse;whiteSpace=wrap;html=1;" parent="1" vertex="1">
          <mxGeometry x="253.5" y="698" width="115" height="50" as="geometry" />
        </mxCell>
        <mxCell id="HElb8EKQKASEjrZ3UNd6-71" value="监控系统接入" style="ellipse;whiteSpace=wrap;html=1;" parent="1" vertex="1">
          <mxGeometry x="261" y="767" width="115" height="50" as="geometry" />
        </mxCell>
        <mxCell id="HElb8EKQKASEjrZ3UNd6-73" value="活动开发人员" style="shape=umlActor;verticalLabelPosition=bottom;verticalAlign=top;html=1;" parent="1" vertex="1">
          <mxGeometry x="546" y="275" width="30" height="60" as="geometry" />
        </mxCell>
        <mxCell id="HElb8EKQKASEjrZ3UNd6-74" value="&lt;div&gt;故障定位&lt;/div&gt;" style="ellipse;whiteSpace=wrap;html=1;" parent="1" vertex="1">
          <mxGeometry x="723.5" y="174" width="115" height="50" as="geometry" />
        </mxCell>
        <mxCell id="HElb8EKQKASEjrZ3UNd6-75" value="" style="html=1;verticalAlign=bottom;endArrow=block;rounded=0;" parent="1" source="HElb8EKQKASEjrZ3UNd6-73" target="HElb8EKQKASEjrZ3UNd6-74" edge="1">
          <mxGeometry width="80" relative="1" as="geometry">
            <mxPoint x="496" y="545" as="sourcePoint" />
            <mxPoint x="576" y="545" as="targetPoint" />
          </mxGeometry>
        </mxCell>
        <mxCell id="HElb8EKQKASEjrZ3UNd6-76" value="" style="html=1;verticalAlign=bottom;endArrow=block;rounded=0;" parent="1" source="HElb8EKQKASEjrZ3UNd6-73" target="HElb8EKQKASEjrZ3UNd6-80" edge="1">
          <mxGeometry width="80" relative="1" as="geometry">
            <mxPoint x="496" y="545" as="sourcePoint" />
            <mxPoint x="576" y="545" as="targetPoint" />
          </mxGeometry>
        </mxCell>
        <mxCell id="HElb8EKQKASEjrZ3UNd6-77" value="" style="html=1;verticalAlign=bottom;endArrow=block;rounded=0;" parent="1" source="HElb8EKQKASEjrZ3UNd6-73" target="HElb8EKQKASEjrZ3UNd6-82" edge="1">
          <mxGeometry width="80" relative="1" as="geometry">
            <mxPoint x="496" y="545" as="sourcePoint" />
            <mxPoint x="576" y="545" as="targetPoint" />
          </mxGeometry>
        </mxCell>
        <mxCell id="HElb8EKQKASEjrZ3UNd6-78" value="" style="html=1;verticalAlign=bottom;endArrow=block;rounded=0;" parent="1" source="HElb8EKQKASEjrZ3UNd6-73" target="HElb8EKQKASEjrZ3UNd6-83" edge="1">
          <mxGeometry width="80" relative="1" as="geometry">
            <mxPoint x="496" y="545" as="sourcePoint" />
            <mxPoint x="576" y="545" as="targetPoint" />
          </mxGeometry>
        </mxCell>
        <mxCell id="HElb8EKQKASEjrZ3UNd6-79" value="" style="html=1;verticalAlign=bottom;endArrow=block;rounded=0;" parent="1" source="HElb8EKQKASEjrZ3UNd6-73" target="HElb8EKQKASEjrZ3UNd6-81" edge="1">
          <mxGeometry width="80" relative="1" as="geometry">
            <mxPoint x="496" y="545" as="sourcePoint" />
            <mxPoint x="576" y="545" as="targetPoint" />
          </mxGeometry>
        </mxCell>
        <mxCell id="HElb8EKQKASEjrZ3UNd6-80" value="日志查询" style="ellipse;whiteSpace=wrap;html=1;" parent="1" vertex="1">
          <mxGeometry x="743.5" y="231" width="115" height="50" as="geometry" />
        </mxCell>
        <mxCell id="HElb8EKQKASEjrZ3UNd6-81" value="接受告警工单" style="ellipse;whiteSpace=wrap;html=1;" parent="1" vertex="1">
          <mxGeometry x="739.5" y="296" width="115" height="50" as="geometry" />
        </mxCell>
        <mxCell id="HElb8EKQKASEjrZ3UNd6-82" value="查看性能指标" style="ellipse;whiteSpace=wrap;html=1;" parent="1" vertex="1">
          <mxGeometry x="718.5" y="359" width="115" height="50" as="geometry" />
        </mxCell>
        <mxCell id="HElb8EKQKASEjrZ3UNd6-83" value="礼包信息查看" style="ellipse;whiteSpace=wrap;html=1;" parent="1" vertex="1">
          <mxGeometry x="628.5" y="406" width="115" height="50" as="geometry" />
        </mxCell>
        <mxCell id="iaF9YsFqPgOwi9NGmU-E-2" value="&lt;div&gt;权限管理&lt;/div&gt;" style="ellipse;whiteSpace=wrap;html=1;" vertex="1" parent="1">
          <mxGeometry x="147.5" y="145" width="115" height="50" as="geometry" />
        </mxCell>
        <mxCell id="iaF9YsFqPgOwi9NGmU-E-3" value="查看日志" style="ellipse;whiteSpace=wrap;html=1;" vertex="1" parent="1">
          <mxGeometry x="312.5" y="245" width="115" height="50" as="geometry" />
        </mxCell>
        <mxCell id="iaF9YsFqPgOwi9NGmU-E-4" value="" style="html=1;verticalAlign=bottom;endArrow=block;rounded=0;" edge="1" parent="1" source="HElb8EKQKASEjrZ3UNd6-16" target="iaF9YsFqPgOwi9NGmU-E-3">
          <mxGeometry width="80" relative="1" as="geometry">
            <mxPoint x="75" y="575" as="sourcePoint" />
            <mxPoint x="155" y="575" as="targetPoint" />
          </mxGeometry>
        </mxCell>
        <mxCell id="iaF9YsFqPgOwi9NGmU-E-5" value="" style="html=1;verticalAlign=bottom;endArrow=block;rounded=0;" edge="1" parent="1" source="HElb8EKQKASEjrZ3UNd6-16" target="iaF9YsFqPgOwi9NGmU-E-2">
          <mxGeometry width="80" relative="1" as="geometry">
            <mxPoint x="75" y="575" as="sourcePoint" />
            <mxPoint x="155" y="575" as="targetPoint" />
          </mxGeometry>
        </mxCell>
        <mxCell id="iaF9YsFqPgOwi9NGmU-E-6" value="查看链路详情" style="ellipse;whiteSpace=wrap;html=1;" vertex="1" parent="1">
          <mxGeometry x="250" y="831" width="115" height="50" as="geometry" />
        </mxCell>
        <mxCell id="iaF9YsFqPgOwi9NGmU-E-7" value="异常处理" style="ellipse;whiteSpace=wrap;html=1;" vertex="1" parent="1">
          <mxGeometry x="176" y="881" width="115" height="50" as="geometry" />
        </mxCell>
        <mxCell id="iaF9YsFqPgOwi9NGmU-E-8" value="" style="html=1;verticalAlign=bottom;endArrow=block;rounded=0;" edge="1" parent="1" source="HElb8EKQKASEjrZ3UNd6-62" target="iaF9YsFqPgOwi9NGmU-E-6">
          <mxGeometry width="80" relative="1" as="geometry">
            <mxPoint x="51" y="1018" as="sourcePoint" />
            <mxPoint x="131" y="1018" as="targetPoint" />
          </mxGeometry>
        </mxCell>
        <mxCell id="iaF9YsFqPgOwi9NGmU-E-9" value="" style="html=1;verticalAlign=bottom;endArrow=block;rounded=0;" edge="1" parent="1" source="HElb8EKQKASEjrZ3UNd6-62" target="iaF9YsFqPgOwi9NGmU-E-7">
          <mxGeometry width="80" relative="1" as="geometry">
            <mxPoint x="51" y="1018" as="sourcePoint" />
            <mxPoint x="131" y="1018" as="targetPoint" />
          </mxGeometry>
        </mxCell>
        <mxCell id="iaF9YsFqPgOwi9NGmU-E-10" value="告警配置" style="ellipse;whiteSpace=wrap;html=1;" vertex="1" parent="1">
          <mxGeometry x="628.5" y="132" width="115" height="50" as="geometry" />
        </mxCell>
        <mxCell id="iaF9YsFqPgOwi9NGmU-E-11" value="" style="html=1;verticalAlign=bottom;endArrow=block;rounded=0;" edge="1" parent="1" source="HElb8EKQKASEjrZ3UNd6-73" target="iaF9YsFqPgOwi9NGmU-E-10">
          <mxGeometry width="80" relative="1" as="geometry">
            <mxPoint x="496" y="545" as="sourcePoint" />
            <mxPoint x="576" y="545" as="targetPoint" />
          </mxGeometry>
        </mxCell>
        <mxCell id="iaF9YsFqPgOwi9NGmU-E-12" value="运维人员" style="shape=umlActor;verticalLabelPosition=bottom;verticalAlign=top;html=1;" vertex="1" parent="1">
          <mxGeometry x="576" y="765" width="30" height="60" as="geometry" />
        </mxCell>
        <mxCell id="iaF9YsFqPgOwi9NGmU-E-13" value="&lt;div&gt;故障定位&lt;/div&gt;" style="ellipse;whiteSpace=wrap;html=1;" vertex="1" parent="1">
          <mxGeometry x="749.75" y="672" width="115" height="50" as="geometry" />
        </mxCell>
        <mxCell id="iaF9YsFqPgOwi9NGmU-E-14" value="" style="html=1;verticalAlign=bottom;endArrow=block;rounded=0;" edge="1" source="iaF9YsFqPgOwi9NGmU-E-12" target="iaF9YsFqPgOwi9NGmU-E-13" parent="1">
          <mxGeometry width="80" relative="1" as="geometry">
            <mxPoint x="526" y="1035" as="sourcePoint" />
            <mxPoint x="606" y="1035" as="targetPoint" />
          </mxGeometry>
        </mxCell>
        <mxCell id="iaF9YsFqPgOwi9NGmU-E-15" value="" style="html=1;verticalAlign=bottom;endArrow=block;rounded=0;" edge="1" source="iaF9YsFqPgOwi9NGmU-E-12" target="iaF9YsFqPgOwi9NGmU-E-19" parent="1">
          <mxGeometry width="80" relative="1" as="geometry">
            <mxPoint x="526" y="1035" as="sourcePoint" />
            <mxPoint x="606" y="1035" as="targetPoint" />
          </mxGeometry>
        </mxCell>
        <mxCell id="iaF9YsFqPgOwi9NGmU-E-16" value="" style="html=1;verticalAlign=bottom;endArrow=block;rounded=0;" edge="1" source="iaF9YsFqPgOwi9NGmU-E-12" target="iaF9YsFqPgOwi9NGmU-E-21" parent="1">
          <mxGeometry width="80" relative="1" as="geometry">
            <mxPoint x="526" y="1035" as="sourcePoint" />
            <mxPoint x="606" y="1035" as="targetPoint" />
          </mxGeometry>
        </mxCell>
        <mxCell id="iaF9YsFqPgOwi9NGmU-E-18" value="" style="html=1;verticalAlign=bottom;endArrow=block;rounded=0;" edge="1" source="iaF9YsFqPgOwi9NGmU-E-12" target="iaF9YsFqPgOwi9NGmU-E-20" parent="1">
          <mxGeometry width="80" relative="1" as="geometry">
            <mxPoint x="526" y="1035" as="sourcePoint" />
            <mxPoint x="606" y="1035" as="targetPoint" />
          </mxGeometry>
        </mxCell>
        <mxCell id="iaF9YsFqPgOwi9NGmU-E-19" value="日志查询" style="ellipse;whiteSpace=wrap;html=1;" vertex="1" parent="1">
          <mxGeometry x="763.75" y="742" width="115" height="50" as="geometry" />
        </mxCell>
        <mxCell id="iaF9YsFqPgOwi9NGmU-E-20" value="接受告警工单" style="ellipse;whiteSpace=wrap;html=1;" vertex="1" parent="1">
          <mxGeometry x="749.75" y="810" width="115" height="50" as="geometry" />
        </mxCell>
        <mxCell id="iaF9YsFqPgOwi9NGmU-E-21" value="查看链路详情" style="ellipse;whiteSpace=wrap;html=1;" vertex="1" parent="1">
          <mxGeometry x="683.75" y="872" width="115" height="50" as="geometry" />
        </mxCell>
        <mxCell id="iaF9YsFqPgOwi9NGmU-E-23" value="告警配置" style="ellipse;whiteSpace=wrap;html=1;" vertex="1" parent="1">
          <mxGeometry x="658.5" y="622" width="115" height="50" as="geometry" />
        </mxCell>
        <mxCell id="iaF9YsFqPgOwi9NGmU-E-24" value="" style="html=1;verticalAlign=bottom;endArrow=block;rounded=0;" edge="1" source="iaF9YsFqPgOwi9NGmU-E-12" target="iaF9YsFqPgOwi9NGmU-E-23" parent="1">
          <mxGeometry width="80" relative="1" as="geometry">
            <mxPoint x="526" y="1035" as="sourcePoint" />
            <mxPoint x="606" y="1035" as="targetPoint" />
          </mxGeometry>
        </mxCell>
        <mxCell id="iaF9YsFqPgOwi9NGmU-E-25" value="用户" style="shape=umlActor;verticalLabelPosition=bottom;verticalAlign=top;html=1;" vertex="1" parent="1">
          <mxGeometry x="36" y="1263" width="30" height="60" as="geometry" />
        </mxCell>
        <mxCell id="iaF9YsFqPgOwi9NGmU-E-26" value="" style="endArrow=open;endFill=1;endSize=12;html=1;rounded=0;" edge="1" parent="1" source="iaF9YsFqPgOwi9NGmU-E-25" target="iaF9YsFqPgOwi9NGmU-E-27">
          <mxGeometry width="160" relative="1" as="geometry">
            <mxPoint x="136" y="1323" as="sourcePoint" />
            <mxPoint x="206" y="1293" as="targetPoint" />
          </mxGeometry>
        </mxCell>
        <mxCell id="iaF9YsFqPgOwi9NGmU-E-27" value="申请权限" style="ellipse;whiteSpace=wrap;html=1;" vertex="1" parent="1">
          <mxGeometry x="176" y="1263" width="120" height="60" as="geometry" />
        </mxCell>
        <mxCell id="iaF9YsFqPgOwi9NGmU-E-28" value="" style="endArrow=block;dashed=1;endFill=0;endSize=12;html=1;rounded=0;" edge="1" parent="1" source="iaF9YsFqPgOwi9NGmU-E-27" target="iaF9YsFqPgOwi9NGmU-E-29">
          <mxGeometry width="160" relative="1" as="geometry">
            <mxPoint x="406" y="1293" as="sourcePoint" />
            <mxPoint x="396" y="1203" as="targetPoint" />
          </mxGeometry>
        </mxCell>
        <mxCell id="iaF9YsFqPgOwi9NGmU-E-29" value="用户登录" style="ellipse;whiteSpace=wrap;html=1;" vertex="1" parent="1">
          <mxGeometry x="406" y="1203" width="140" height="70" as="geometry" />
        </mxCell>
        <mxCell id="iaF9YsFqPgOwi9NGmU-E-30" value="用户退出" style="ellipse;whiteSpace=wrap;html=1;" vertex="1" parent="1">
          <mxGeometry x="406" y="1313" width="140" height="70" as="geometry" />
        </mxCell>
        <mxCell id="iaF9YsFqPgOwi9NGmU-E-31" value="" style="endArrow=block;dashed=1;endFill=0;endSize=12;html=1;rounded=0;startArrow=none;" edge="1" parent="1" source="iaF9YsFqPgOwi9NGmU-E-32" target="iaF9YsFqPgOwi9NGmU-E-30">
          <mxGeometry width="160" relative="1" as="geometry">
            <mxPoint x="287.1462715442881" y="1277.3151433930848" as="sourcePoint" />
            <mxPoint x="386.48143973185097" y="1246.4224115115699" as="targetPoint" />
            <Array as="points">
              <mxPoint x="366" y="1333" />
            </Array>
          </mxGeometry>
        </mxCell>
        <mxCell id="iaF9YsFqPgOwi9NGmU-E-32" value="include" style="html=1;" vertex="1" parent="1">
          <mxGeometry x="316" y="1313" width="50" height="20" as="geometry" />
        </mxCell>
        <mxCell id="iaF9YsFqPgOwi9NGmU-E-33" value="" style="endArrow=none;dashed=1;endFill=0;endSize=12;html=1;rounded=0;" edge="1" parent="1" source="iaF9YsFqPgOwi9NGmU-E-27" target="iaF9YsFqPgOwi9NGmU-E-32">
          <mxGeometry width="160" relative="1" as="geometry">
            <mxPoint x="287.09949900227457" y="1308.7229227699306" as="sourcePoint" />
            <mxPoint x="394.80899067149085" y="1341.0024974087473" as="targetPoint" />
            <Array as="points" />
          </mxGeometry>
        </mxCell>
        <mxCell id="iaF9YsFqPgOwi9NGmU-E-34" value="include" style="html=1;" vertex="1" parent="1">
          <mxGeometry x="316" y="1263" width="50" height="20" as="geometry" />
        </mxCell>
      </root>
    </mxGraphModel>
  </diagram>
</mxfile>
